<?xml version="1.0" standalone="no"?><!-- Generator: Gravit.io --><svg xmlns="http://www.w3.org/2000/svg" xmlns:xlink="http://www.w3.org/1999/xlink" style="isolation:isolate" viewBox="-2.453 -1.443 104.897 102.202" width="104.897" height="102.202"><path d="M 11.49584 0.00773 L 88.51712 0.01803 C 94.85653 0.01887 100.00265 5.16635 100.00183 11.50576 L 99.99185 88.50761 C 99.99102 94.84701 94.84356 99.99311 88.50416 99.99227 L 11.48288 99.98197 C 5.14347 99.98113 -0.00265 94.83365 -0.00183 88.49424 L 0.00815 11.49239 C 0.00898 5.15299 5.15644 0.00689 11.49584 0.00773 Z" style="stroke:none;fill:#FFFFFF;stroke-miterlimit:10;"/><path d="M 11.49584 0.00773 L 88.51712 0.01803 C 94.85653 0.01887 100.00265 5.16635 100.00183 11.50576 L 99.99185 88.50761 C 99.99102 94.84701 94.84356 99.99311 88.50416 99.99227 L 11.48288 99.98197 C 5.14347 99.98113 -0.00265 94.83365 -0.00183 88.49424 L 0.00815 11.49239 C 0.00898 5.15299 5.15644 0.00689 11.49584 0.00773 Z" style="fill:none;stroke:#877148;stroke-width:0.30080781011385327;stroke-linecap:square;stroke-miterlimit:3;"/><defs><filter id="VKecmBtgpgcB68nycODnmGhfJKqDNbLj" x="-200%" y="-200%" width="400%" height="400%"><feOffset xmlns="http://www.w3.org/2000/svg" in="SourceAlpha" result="offOut" dx="1" dy="1"/><feGaussianBlur xmlns="http://www.w3.org/2000/svg" in="offOut" result="blurOut" stdDeviation="1"/><feComponentTransfer xmlns="http://www.w3.org/2000/svg" in="blurOut" result="opacOut"><feFuncA xmlns="http://www.w3.org/2000/svg" type="table" tableValues="0 0.5"/></feComponentTransfer><feBlend xmlns="http://www.w3.org/2000/svg" in="SourceGraphic" in2="opacOut" mode="normal"/></filter></defs><g filter="url(#VKecmBtgpgcB68nycODnmGhfJKqDNbLj)"><path d="M 25.20178 40.748 L 88.70061 40.75648 C 88.99244 40.75652 89.22934 40.99349 89.22931 41.28532 L 89.22788 52.29032 C 89.22784 52.58215 88.99088 52.81905 88.69905 52.81901 L 25.20022 52.81053 C 24.90839 52.81049 24.67149 52.57352 24.67152 52.28169 L 24.67295 41.27669 C 24.67299 40.98486 24.90995 40.74796 25.20178 40.748 Z" style="stroke:none;fill:#D81B60;stroke-linecap:square;stroke-miterlimit:3;"/></g><defs><filter id="ZsqtXjcLNxIXQZD6ZQSadu9w2G3guytU" x="-200%" y="-200%" width="400%" height="400%"><feOffset xmlns="http://www.w3.org/2000/svg" in="SourceAlpha" result="offOut" dx="1" dy="1"/><feGaussianBlur xmlns="http://www.w3.org/2000/svg" in="offOut" result="blurOut" stdDeviation="1"/><feComponentTransfer xmlns="http://www.w3.org/2000/svg" in="blurOut" result="opacOut"><feFuncA xmlns="http://www.w3.org/2000/svg" type="table" tableValues="0 0.5"/></feComponentTransfer><feBlend xmlns="http://www.w3.org/2000/svg" in="SourceGraphic" in2="opacOut" mode="normal"/></filter></defs><g filter="url(#ZsqtXjcLNxIXQZD6ZQSadu9w2G3guytU)"><path d="M 25.19773 55.9978 L 88.69656 56.00629 C 88.98839 56.00633 89.22529 56.24329 89.22526 56.53512 L 89.22383 67.54013 C 89.22379 67.83196 88.98683 68.06886 88.695 68.06882 L 25.19617 68.06033 C 24.90433 68.06029 24.66743 67.82333 24.66747 67.5315 L 24.6689 56.5265 C 24.66894 56.23466 24.9059 55.99776 25.19773 55.9978 Z" style="stroke:none;fill:#00796B;stroke-linecap:square;stroke-miterlimit:3;"/></g><defs><filter id="OB0PK5trxPKa7r9OW6n7Aiu44GwDVckC" x="-200%" y="-200%" width="400%" height="400%"><feOffset xmlns="http://www.w3.org/2000/svg" in="SourceAlpha" result="offOut" dx="1" dy="1"/><feGaussianBlur xmlns="http://www.w3.org/2000/svg" in="offOut" result="blurOut" stdDeviation="1"/><feComponentTransfer xmlns="http://www.w3.org/2000/svg" in="blurOut" result="opacOut"><feFuncA xmlns="http://www.w3.org/2000/svg" type="table" tableValues="0 0.5"/></feComponentTransfer><feBlend xmlns="http://www.w3.org/2000/svg" in="SourceGraphic" in2="opacOut" mode="normal"/></filter></defs><g filter="url(#OB0PK5trxPKa7r9OW6n7Aiu44GwDVckC)"><path d="M 25.19773 74.79974 L 88.69656 74.80823 C 88.98839 74.80827 89.22529 75.04523 89.22526 75.33706 L 89.22383 86.34206 C 89.22379 86.6339 88.98683 86.8708 88.695 86.87076 L 25.19617 86.86227 C 24.90433 86.86223 24.66743 86.62527 24.66747 86.33344 L 24.6689 75.32843 C 24.66894 75.0366 24.9059 74.7997 25.19773 74.79974 Z" style="stroke:none;fill:#666AD1;stroke-linecap:square;stroke-miterlimit:3;"/></g><defs><filter id="GdC32R6u2LAmoXWcuRTXza7vOnUZiOFA" x="-200%" y="-200%" width="400%" height="400%"><feOffset xmlns="http://www.w3.org/2000/svg" in="SourceAlpha" result="offOut" dx="1" dy="1"/><feGaussianBlur xmlns="http://www.w3.org/2000/svg" in="offOut" result="blurOut" stdDeviation="1"/><feComponentTransfer xmlns="http://www.w3.org/2000/svg" in="blurOut" result="opacOut"><feFuncA xmlns="http://www.w3.org/2000/svg" type="table" tableValues="0 0.5"/></feComponentTransfer><feBlend xmlns="http://www.w3.org/2000/svg" in="SourceGraphic" in2="opacOut" mode="normal"/></filter></defs><g filter="url(#GdC32R6u2LAmoXWcuRTXza7vOnUZiOFA)"><path d="M 25.24984 23.18496 L 88.74867 23.19345 C 89.04051 23.19349 89.27741 23.43045 89.27737 23.72228 L 89.27594 34.72728 C 89.2759 35.01912 89.03894 35.25602 88.74711 35.25598 L 25.24828 35.24749 C 24.95645 35.24745 24.71955 35.01049 24.71958 34.71866 L 24.72101 23.71365 C 24.72105 23.42182 24.95801 23.18492 25.24984 23.18496 Z" style="stroke:none;fill:#00838F;stroke-linecap:square;stroke-miterlimit:3;"/></g><defs><filter id="8tHNtQL9Cj7R1citsgDQXvyZw5qe3p4l" x="-200%" y="-200%" width="400%" height="400%"><feOffset xmlns="http://www.w3.org/2000/svg" in="SourceAlpha" result="offOut" dx="1" dy="1"/><feGaussianBlur xmlns="http://www.w3.org/2000/svg" in="offOut" result="blurOut" stdDeviation="1"/><feComponentTransfer xmlns="http://www.w3.org/2000/svg" in="blurOut" result="opacOut"><feFuncA xmlns="http://www.w3.org/2000/svg" type="table" tableValues="0 0.5"/></feComponentTransfer><feBlend xmlns="http://www.w3.org/2000/svg" in="SourceGraphic" in2="opacOut" mode="normal"/></filter></defs><g filter="url(#8tHNtQL9Cj7R1citsgDQXvyZw5qe3p4l)"><g transform="matrix(1,0.00013,-0.00013,1,7.13977,23.18254)"><text transform="matrix(1,0,0,1,5.00989,4.52637)" style="font-family:&quot;Arimo&quot;;font-weight:400;font-size:5px;font-style:normal;fill:#646464;stroke:none;">11</text><text transform="matrix(1,0,0,1,2.92737,10.1123)" style="font-family:&quot;Arimo&quot;;font-weight:400;font-size:5px;font-style:normal;fill:#646464;stroke:none;">Mon</text><text transform="matrix(1,0,0,1,5.00989,21.28418)" style="font-family:&quot;Arimo&quot;;font-weight:400;font-size:5px;font-style:normal;fill:#646464;stroke:none;">12</text><text transform="matrix(1,0,0,1,3.48279,26.87012)" style="font-family:&quot;Arimo&quot;;font-weight:400;font-size:5px;font-style:normal;fill:#646464;stroke:none;">Tue</text><text transform="matrix(1,0,0,1,5.00989,54.7998)" style="font-family:&quot;Arimo&quot;;font-weight:400;font-size:5px;font-style:normal;fill:#646464;stroke:none;">13</text><text transform="matrix(1,0,0,1,2.65027,60.38574)" style="font-family:&quot;Arimo&quot;;font-weight:400;font-size:5px;font-style:normal;fill:#646464;stroke:none;">Wed</text></g></g><defs><filter id="faJji45CAYjeoFqSQvHSxVM3rApkIxO0" x="-200%" y="-200%" width="400%" height="400%"><feOffset xmlns="http://www.w3.org/2000/svg" in="SourceAlpha" result="offOut" dx="0" dy="1"/><feGaussianBlur xmlns="http://www.w3.org/2000/svg" in="offOut" result="blurOut" stdDeviation="1.5"/><feComponentTransfer xmlns="http://www.w3.org/2000/svg" in="blurOut" result="opacOut"><feFuncA xmlns="http://www.w3.org/2000/svg" type="table" tableValues="0 0.5"/></feComponentTransfer><feBlend xmlns="http://www.w3.org/2000/svg" in="SourceGraphic" in2="opacOut" mode="normal"/></filter></defs><g filter="url(#faJji45CAYjeoFqSQvHSxVM3rApkIxO0)"><linearGradient id="_lgradient_6" x1="58.428541193549336%" y1="-276.9213478443436%" x2="60.510954439410135%" y2="340.2307080658107%"><stop offset="51.30434782608696%" stop-opacity="1" style="stop-color:rgb(135,113,72)"/><stop offset="100%" stop-opacity="1" style="stop-color:rgb(52,43,28)"/><stop offset="100%" stop-opacity="1" style="stop-color:rgb(52,43,28)"/></linearGradient><path d=" M -0.00183 17.00557 L -0.00103 10.82956 C 1.27781 3.3634 5.64186 -0.20781 13.00321 0.02327 L 83.32844 0.03267 C 93.95051 -0.25541 98.07086 1.86814 99.99265 10.84292 L 99.99185 17.01894 L -0.00183 17.00557 Z " fill="url(#_lgradient_6)" vector-effect="non-scaling-stroke" stroke-width="0.30081" stroke="rgb(135,113,72)" stroke-linejoin="miter" stroke-linecap="square" stroke-miterlimit="3"/></g><g transform="matrix(1,0.00013,-0.00013,1,11.74922,3.87804)"><text transform="matrix(1,0,0,1,0,5.43164)" style="font-family:&quot;Arimo&quot;;font-weight:700;font-size:6px;font-style:normal;fill:#FFFFFF;stroke:none;">July 2017</text></g><g transform="matrix(1,0.00013,-0.00013,1,27.69039,24.58537)"><text transform="matrix(1,0,0,1,0,2.71582)" style="font-family:&quot;Arimo&quot;;font-weight:400;font-size:3px;font-style:normal;fill:#FFFFFF;stroke:none;">Linear Algebra  </text><text transform="matrix(1,0,0,1,0,5.16211)" style="font-family:&quot;Arimo&quot;;font-weight:400;font-size:2px;font-style:normal;fill:#FFFFFF;stroke:none;">MTH 2775</text><text transform="matrix(1,0,0,1,0,7.39648)" style="font-family:&quot;Arimo&quot;;font-weight:400;font-size:2px;font-style:normal;fill:#FFFFFF;stroke:none;">5:30pm - 7:17pm</text></g><defs><filter id="dURsCfMqaZqdmQBM1UEFiK3uToiatXZN" x="-200%" y="-200%" width="400%" height="400%"><feOffset xmlns="http://www.w3.org/2000/svg" in="SourceAlpha" result="offOut" dx="1" dy="1"/><feGaussianBlur xmlns="http://www.w3.org/2000/svg" in="offOut" result="blurOut" stdDeviation="2.5"/><feComponentTransfer xmlns="http://www.w3.org/2000/svg" in="blurOut" result="opacOut"><feFuncA xmlns="http://www.w3.org/2000/svg" type="table" tableValues="0 0.5"/></feComponentTransfer><feBlend xmlns="http://www.w3.org/2000/svg" in="SourceGraphic" in2="opacOut" mode="normal"/></filter></defs><g filter="url(#dURsCfMqaZqdmQBM1UEFiK3uToiatXZN)"><g transform="matrix(1,0.00013,-0.00013,1,27.69691,42.14764)"><text transform="matrix(1,0,0,1,0,2.71582)" style="font-family:&quot;Arimo&quot;;font-weight:400;font-size:3px;font-style:normal;fill:#FFFFFF;stroke:none;">Intro to Computer Networks </text><text transform="matrix(1,0,0,1,0,5.16211)" style="font-family:&quot;Arimo&quot;;font-weight:400;font-size:2px;font-style:normal;fill:#FFFFFF;stroke:none;">CSI 2470</text><text transform="matrix(1,0,0,1,0,7.39648)" style="font-family:&quot;Arimo&quot;;font-weight:400;font-size:2px;font-style:normal;fill:#FFFFFF;stroke:none;">1:00pm - 2:47pm</text></g></g><g transform="matrix(1,0.00013,-0.00013,1,27.69691,76.19996)"><text transform="matrix(1,0,0,1,0,2.71582)" style="font-family:&quot;Arimo&quot;;font-weight:400;font-size:3px;font-style:normal;fill:#FFFFFF;stroke:none;">Literature </text><text transform="matrix(1,0,0,1,0,5.16211)" style="font-family:&quot;Arimo&quot;;font-weight:400;font-size:2px;font-style:normal;fill:#FFFFFF;stroke:none;">HC 2020</text><text transform="matrix(1,0,0,1,0,7.39648)" style="font-family:&quot;Arimo&quot;;font-weight:400;font-size:2px;font-style:normal;fill:#FFFFFF;stroke:none;">9:20am - 10:27am</text></g><g transform="matrix(1,0.00013,-0.00013,1,27.69052,57.39802)"><text transform="matrix(1,0,0,1,0,2.71582)" style="font-family:&quot;Arimo&quot;;font-weight:400;font-size:3px;font-style:normal;fill:#FFFFFF;stroke:none;">Linear Algebra </text><text transform="matrix(1,0,0,1,0,5.16211)" style="font-family:&quot;Arimo&quot;;font-weight:400;font-size:2px;font-style:normal;fill:#FFFFFF;stroke:none;">MTH 2775</text><text transform="matrix(1,0,0,1,0,7.39648)" style="font-family:&quot;Arimo&quot;;font-weight:400;font-size:2px;font-style:normal;fill:#FFFFFF;stroke:none;">5:30pm - 7:17pm</text></g></svg>